<?xml version="1.0" encoding="utf-8"?>
<!-- Generator: Adobe Illustrator 20.1.0, SVG Export Plug-In . SVG Version: 6.00 Build 0)  -->
<svg version="1.1" id="Layer_1" xmlns="http://www.w3.org/2000/svg" xmlns:xlink="http://www.w3.org/1999/xlink" x="0px" y="0px"
	 width="242px" height="64px" viewBox="0 0 242 64" style="enable-background:new 0 0 242 64;" xml:space="preserve">
<style type="text/css">
	.st0{fill:#231F20;}
	.st1{fill:#FFFFFF;}
	.st2{fill:#FFDE1A;}
	.st3{fill:#FFF87A;}
	.st4{fill:#66492A;}
	.st5{fill:#FFD7D7;}
	.st6{fill:#F4D7D7;}
	.st7{fill:#B2E6FB;}
	.st8{fill:#68BBE1;}
</style>
<g>
	<g>
		<path class="st0" d="M83.1,27.2l4.5,18.6h0.1l4.6-18.6h6.5v25.3h-4.9v-7.4l0.4-9.8h-0.1l-4.8,17.2h-3.3l-4.8-17.1h-0.1l0.4,9.7
			v7.4h-4.9V27.2H83.1z"/>
		<path class="st0" d="M107.5,36.5h3.2c2.5,0,4.6,0.7,6.1,2.2c1.5,1.4,2.3,3.4,2.3,5.7c0,2.4-0.8,4.4-2.3,5.9s-3.5,2.2-6.1,2.2h-8.1
			V27.2h4.9V36.5z M107.5,40.5v8.1h3.2c1.1,0,1.9-0.4,2.5-1.2s0.9-1.8,0.9-3c0-1.1-0.3-2.1-0.9-2.8s-1.4-1.1-2.5-1.1H107.5z
			 M125.5,52.5h-4.9V27.2h4.9V52.5z"/>
		<path class="st0" d="M149.7,27.2h4.9v25.3h-4.9V36.8h-0.1l-7.7,15.7H137V27.2h4.9v15.7h0.1L149.7,27.2z"/>
		<path class="st0" d="M186.4,58.7H182v-6.2h-12.3v6.2h-4.6l-0.3-10.2h1.7c0.7-0.7,1.4-1.9,1.9-3.5c0.5-1.7,0.8-4.2,0.9-7.6
			l0.6-10.2h14.5v21.4h2.6L186.4,58.7z M174.2,37.4c-0.1,2.6-0.4,4.8-0.8,6.6c-0.4,1.8-1,3.3-1.7,4.5h7.7V31.1h-4.9L174.2,37.4z"/>
		<path class="st0" d="M202.7,41.4h-8.5v7.2h10v3.9h-15V27.2h14.9v3.9h-10v6.3h8.5v4H202.7z"/>
		<path class="st0" d="M222,31.1h-5.7v21.4h-4.9V31.1h-5.7v-3.9H222V31.1z"/>
		<path class="st0" d="M237,27.2h4.9v25.3H237V36.8h-0.1l-7.7,15.7h-4.9V27.2h4.9v15.7h0.1L237,27.2z"/>
	</g>
	<g>
		<path class="st0" d="M82.7,11.4H78v2.8h2.4c1,0,1.8,0.3,2.4,0.8s0.9,1.2,0.9,2.1s-0.3,1.6-0.9,2.1S81.4,20,80.4,20h-3.7v-9.7h5.9
			L82.7,11.4L82.7,11.4z M78,15.3v3.8h2.4c0.7,0,1.1-0.2,1.5-0.6c0.3-0.4,0.5-0.8,0.5-1.4c0-0.5-0.2-1-0.5-1.3
			c-0.3-0.4-0.8-0.5-1.5-0.5H78z"/>
		<path class="st0" d="M91,12.9v7.2h-1.3v-6.2h-2.4v2c0,1.4-0.2,2.5-0.6,3.1s-1,1-1.9,1h-0.4v-1.1h0.3c0.5,0,0.8-0.2,1-0.7
			S86,17,86,15.9v-3.1h5V12.9z"/>
		<path class="st0" d="M97.1,20.1c0-0.2-0.1-0.4-0.1-0.6s0-0.3,0-0.5c-0.2,0.3-0.6,0.6-1,0.9c-0.4,0.2-0.8,0.3-1.3,0.3
			c-0.7,0-1.3-0.2-1.7-0.6c-0.4-0.4-0.6-0.9-0.6-1.6s0.3-1.2,0.8-1.6c0.6-0.4,1.3-0.6,2.3-0.6H97v-0.7c0-0.4-0.1-0.8-0.4-1
			s-0.6-0.4-1.1-0.4c-0.4,0-0.8,0.1-1,0.3c-0.3,0.2-0.4,0.5-0.4,0.8h-1.2l0,0c0-0.5,0.2-1,0.7-1.4s1.2-0.7,2-0.7s1.5,0.2,2,0.6
			c0.5,0.4,0.7,1,0.7,1.8v3.5c0,0.3,0,0.5,0,0.7s0.1,0.5,0.1,0.7h-1.3V20.1z M94.9,19.1c0.5,0,0.9-0.1,1.3-0.4
			c0.4-0.2,0.6-0.5,0.7-0.8v-1.2h-1.5c-0.5,0-0.9,0.1-1.3,0.4c-0.3,0.3-0.5,0.6-0.5,0.9s0.1,0.6,0.3,0.8
			C94.3,19,94.6,19.1,94.9,19.1z"/>
		<path class="st0" d="M104.8,13.9h-3.3v6.2h-1.3v-7.2h4.6C104.8,12.9,104.8,13.9,104.8,13.9z"/>
		<path class="st0" d="M105.4,16.4c0-1.1,0.3-1.9,0.9-2.6c0.6-0.7,1.4-1,2.3-1c1,0,1.8,0.3,2.4,1s0.9,1.6,0.9,2.6v0.1
			c0,1.1-0.3,1.9-0.9,2.6s-1.4,1-2.4,1s-1.8-0.3-2.4-1s-0.9-1.6-0.9-2.6L105.4,16.4L105.4,16.4z M106.7,16.6c0,0.8,0.2,1.4,0.5,1.9
			s0.8,0.7,1.4,0.7s1.1-0.2,1.4-0.7s0.5-1.1,0.5-1.9v-0.1c0-0.8-0.2-1.4-0.5-1.9s-0.8-0.8-1.4-0.8s-1.1,0.3-1.4,0.8
			s-0.5,1.1-0.5,1.9V16.6z"/>
		<path class="st0" d="M118.8,13.9h-2.4v6.2h-1.3v-6.2h-2.3v-1h6C118.8,12.9,118.8,13.9,118.8,13.9z"/>
		<path class="st0" d="M120.3,20.1v-7.2h2.8c0.9,0,1.7,0.2,2.2,0.5s0.8,0.8,0.8,1.5c0,0.3-0.1,0.6-0.3,0.9c-0.2,0.3-0.5,0.5-0.9,0.6
			c0.4,0.1,0.8,0.3,1,0.6c0.3,0.3,0.4,0.7,0.4,1c0,0.7-0.2,1.2-0.7,1.5s-1.2,0.5-2,0.5h-3.3V20.1z M121.6,15.9h1.5
			c0.6,0,1-0.1,1.3-0.2c0.3-0.2,0.4-0.4,0.4-0.7s-0.1-0.6-0.4-0.8s-0.7-0.3-1.3-0.3h-1.5V15.9z M121.6,16.9V19h2
			c0.5,0,0.8-0.1,1.1-0.3c0.2-0.2,0.4-0.4,0.4-0.8c0-0.3-0.1-0.6-0.4-0.8c-0.2-0.2-0.6-0.3-1.1-0.3L121.6,16.9L121.6,16.9z"/>
		<path class="st0" d="M127.7,16.4c0-1.1,0.3-1.9,0.9-2.6c0.6-0.7,1.4-1,2.3-1c1,0,1.8,0.3,2.4,1c0.6,0.7,0.9,1.6,0.9,2.6v0.1
			c0,1.1-0.3,1.9-0.9,2.6c-0.6,0.7-1.4,1-2.4,1s-1.8-0.3-2.4-1c-0.6-0.7-0.9-1.6-0.9-2.6L127.7,16.4L127.7,16.4z M129,16.6
			c0,0.8,0.2,1.4,0.5,1.9s0.8,0.7,1.4,0.7c0.6,0,1.1-0.2,1.4-0.7c0.3-0.5,0.5-1.1,0.5-1.9v-0.1c0-0.8-0.2-1.4-0.5-1.9
			s-0.8-0.8-1.4-0.8c-0.6,0-1.1,0.3-1.4,0.8c-0.3,0.5-0.5,1.1-0.5,1.9V16.6z"/>
		<path class="st0" d="M141.8,16.8c0,1-0.2,1.9-0.7,2.5s-1.2,1-2.1,1c-0.4,0-0.8-0.1-1.2-0.2c-0.3-0.1-0.6-0.4-0.9-0.7v3.5h-1.3v-10
			h1l0.2,0.9c0.2-0.3,0.5-0.6,0.9-0.8c0.3-0.2,0.8-0.3,1.2-0.3c0.9,0,1.6,0.4,2.1,1.1c0.5,0.7,0.7,1.6,0.7,2.8v0.2H141.8z
			 M140.5,16.6c0-0.8-0.2-1.5-0.5-2s-0.8-0.8-1.4-0.8c-0.4,0-0.7,0.1-1,0.3s-0.5,0.4-0.6,0.7v3.5c0.2,0.3,0.4,0.5,0.6,0.7
			c0.3,0.2,0.6,0.2,1,0.2c0.6,0,1.1-0.2,1.4-0.7c0.3-0.5,0.5-1,0.5-1.8V16.6z"/>
		<path class="st0" d="M148,12.9h1.3v7.2H148V15l0,0l-3.2,5.1h-1.3v-7.2h1.3V18l0,0L148,12.9z"/>
		<path class="st0" d="M156.7,13.9h-2.4v6.2H153v-6.2h-2.3v-1h6V13.9z"/>
		<path class="st0" d="M161,20.2c-1,0-1.8-0.3-2.4-1c-0.6-0.7-0.9-1.5-0.9-2.6v-0.3c0-1,0.3-1.9,0.9-2.6c0.6-0.7,1.3-1,2.2-1
			c1,0,1.7,0.3,2.2,0.9c0.5,0.6,0.7,1.4,0.7,2.3v0.8H159l0,0c0,0.7,0.2,1.3,0.5,1.7c0.3,0.4,0.8,0.7,1.4,0.7c0.4,0,0.8-0.1,1.2-0.2
			c0.3-0.1,0.6-0.3,0.9-0.5l0.5,0.9c-0.3,0.3-0.6,0.5-1,0.6C162.1,20.1,161.6,20.2,161,20.2z M160.8,13.8c-0.4,0-0.8,0.2-1.1,0.6
			c-0.3,0.4-0.5,0.8-0.6,1.4l0,0h3.3v-0.2c0-0.5-0.1-0.9-0.4-1.3C161.8,14,161.4,13.8,160.8,13.8z"/>
		<path class="st0" d="M171,12.9v7.2h-1.3v-6.2h-2.4v2c0,1.4-0.2,2.5-0.6,3.1s-1,1-1.9,1h-0.4v-1.1h0.3c0.5,0,0.8-0.2,1-0.7
			s0.3-1.2,0.3-2.3v-3.1h5V12.9z"/>
		<path class="st0" d="M174.1,15.6h1.8c0.9,0,1.5,0.2,2,0.6c0.5,0.4,0.7,0.9,0.7,1.6s-0.2,1.2-0.7,1.6s-1.1,0.6-2,0.6h-3.1v-7.2h1.3
			V15.6z M174.1,16.7v2.4h1.8c0.5,0,0.8-0.1,1-0.3c0.2-0.2,0.3-0.5,0.3-0.8s-0.1-0.6-0.3-0.9s-0.6-0.4-1-0.4
			C175.9,16.7,174.1,16.7,174.1,16.7z"/>
		<path class="st0" d="M186,20.1h-1.3V17h-3.2v3.1h-1.3v-7.2h1.3V16h3.2v-3.1h1.3V20.1z"/>
		<path class="st0" d="M189.4,15.6h1.8c0.9,0,1.5,0.2,2,0.6c0.5,0.4,0.7,0.9,0.7,1.6s-0.2,1.2-0.7,1.6s-1.1,0.6-2,0.6h-3.1v-7.2h1.3
			V15.6z M189.4,16.7v2.4h1.8c0.5,0,0.8-0.1,1-0.3c0.2-0.2,0.3-0.5,0.3-0.8s-0.1-0.6-0.3-0.9c-0.2-0.2-0.6-0.4-1-0.4
			C191.2,16.7,189.4,16.7,189.4,16.7z M196.4,20.1h-1.3v-7.2h1.3V20.1z"/>
		<path class="st0" d="M203.1,12.9h1.3v7.2h-1.3V15l0,0l-3.2,5.1h-1.3v-7.2h1.3V18l0,0L203.1,12.9z M203.5,9.9L203.5,9.9
			c0,0.6-0.1,1-0.5,1.3s-0.8,0.5-1.4,0.5c-0.6,0-1.1-0.2-1.5-0.5s-0.5-0.7-0.5-1.3l0,0h1c0,0.3,0.1,0.5,0.2,0.7
			c0.1,0.2,0.4,0.3,0.7,0.3s0.6-0.1,0.7-0.3c0.2-0.2,0.2-0.4,0.2-0.7H203.5z"/>
		<path class="st0" d="M209.4,16.6c0-1.2,0.2-2.1,0.7-2.8s1.1-1.1,1.9-1.1c0.2,0,0.3,0,0.5,0s0.3,0.1,0.4,0.1V9.7h1.3V13
			c0.1-0.1,0.3-0.1,0.5-0.2c0.2,0,0.4-0.1,0.6-0.1c0.8,0,1.5,0.4,1.9,1.1c0.5,0.7,0.7,1.6,0.7,2.8v0.1c0,1-0.2,1.9-0.7,2.5
			s-1.1,0.9-1.9,0.9c-0.2,0-0.4,0-0.6-0.1c-0.2,0-0.3-0.1-0.5-0.1v2.8H213v-2.8c-0.1,0.1-0.3,0.1-0.5,0.1s-0.3,0-0.5,0
			c-0.8,0-1.5-0.3-1.9-0.9C209.6,18.5,209.4,17.6,209.4,16.6L209.4,16.6L209.4,16.6z M210.8,16.8c0,0.7,0.1,1.3,0.4,1.8
			s0.7,0.7,1.2,0.7c0.1,0,0.2,0,0.3,0s0.2,0,0.3-0.1V14c-0.1,0-0.2,0-0.3-0.1c-0.1,0-0.2,0-0.3,0c-0.6,0-1,0.3-1.3,0.8
			s-0.4,1.2-0.4,2v0.1H210.8z M216.7,16.6c0-0.8-0.1-1.5-0.4-2c-0.3-0.5-0.7-0.8-1.3-0.8c-0.1,0-0.3,0-0.4,0c-0.1,0-0.2,0-0.3,0.1
			v5.2c0.1,0,0.2,0.1,0.3,0.1s0.2,0,0.4,0c0.6,0,1-0.2,1.3-0.7s0.4-1,0.4-1.8V16.6z"/>
		<path class="st0" d="M219.3,16.4c0-1.1,0.3-1.9,0.9-2.6c0.6-0.7,1.4-1,2.3-1c1,0,1.8,0.3,2.4,1c0.6,0.7,0.9,1.6,0.9,2.6v0.1
			c0,1.1-0.3,1.9-0.9,2.6c-0.6,0.7-1.4,1-2.4,1s-1.8-0.3-2.4-1c-0.6-0.7-0.9-1.6-0.9-2.6L219.3,16.4L219.3,16.4z M220.6,16.6
			c0,0.8,0.2,1.4,0.5,1.9s0.8,0.7,1.4,0.7c0.6,0,1.1-0.2,1.4-0.7c0.3-0.5,0.5-1.1,0.5-1.9v-0.1c0-0.8-0.2-1.4-0.5-1.9
			s-0.8-0.8-1.4-0.8c-0.6,0-1.1,0.3-1.4,0.8c-0.3,0.5-0.5,1.1-0.5,1.9V16.6z"/>
		<path class="st0" d="M233.2,20.1h-1.3V17h-3.2v3.1h-1.3v-7.2h1.3V16h3.2v-3.1h1.3V20.1z"/>
		<path class="st0" d="M235,19.1c0.4-0.4,0.6-0.9,0.8-1.3c0.2-0.5,0.3-1.2,0.4-2.1l0.1-2.7h4.7v6.2h1l-0.1,3.1h-1.2v-2.1h-4.9v2.1
			h-1.2l-0.1-3.1h0.5V19.1z M237.5,15.6c0,0.8-0.2,1.5-0.3,2c-0.2,0.6-0.4,1-0.7,1.4h3.2v-5h-2.1L237.5,15.6z"/>
	</g>
</g>
<g>
	<circle class="st1" cx="32" cy="32" r="32"/>
	<g>
		<circle class="st2" cx="32" cy="32" r="29.3"/>
		
			<ellipse transform="matrix(4.811723e-02 -0.9988 0.9988 4.811723e-02 -1.5052 62.4231)" class="st3" cx="32" cy="32" rx="24.6" ry="24.6"/>
		<g>
			<path class="st1" d="M47.2,14.2l-12.1,1.3l9.3-3.1c0.2-0.1,0.3-0.2,0.2-0.4s-0.2-0.3-0.4-0.2l-9.3,3.1l6.7-3.9
				c0.2-0.1,0.2-0.3,0.1-0.5c-0.1-0.2-0.3-0.2-0.5-0.1l-6.7,3.9l4.9-4.5c0.1-0.1,0.1-0.3,0-0.5c-0.1-0.1-0.3-0.1-0.5,0L34,13.8
				l3.2-4.5c0.1-0.1,0.1-0.4-0.1-0.5c-0.1-0.1-0.4-0.1-0.5,0.1l-3.2,4.5l2-4.6c0.1-0.2,0-0.4-0.2-0.4c-0.2-0.1-0.4,0-0.4,0.2l-2,4.6
				l1-4.9c0-0.2-0.1-0.4-0.3-0.4S33.1,8,33.1,8.2l-0.9,4.7V8.2c0-0.2-0.1-0.3-0.3-0.3S31.6,8,31.6,8.2v5l-1-5c0-0.2-0.2-0.3-0.4-0.3
				C30.1,7.9,30,8,30,8.2l1,5l-2-4.5c-0.1-0.2-0.3-0.2-0.4-0.2c-0.2,0.1-0.2,0.3-0.2,0.4l2,4.5l-3.3-4.6c-0.1-0.1-0.3-0.2-0.5-0.1
				c-0.1,0.1-0.2,0.3-0.1,0.5l3.3,4.6L25,9.5c-0.1-0.1-0.3-0.1-0.5,0c-0.1,0.1-0.1,0.3,0,0.5l4.9,4.4l-6.7-3.9
				c-0.2-0.1-0.4,0-0.5,0.1c-0.1,0.2,0,0.4,0.1,0.5L29,15l-9.3-3c-0.2-0.1-0.4,0-0.4,0.2c-0.1,0.2,0,0.4,0.2,0.4l9.3,3l-12.1-1.2
				c-0.2,0-0.3,0.1-0.4,0.3c0,0.2,0.1,0.3,0.3,0.4l12.1,1.2l-10.1,1.1c-0.2,0-0.3,0.2-0.3,0.4c0,0.2,0.2,0.3,0.3,0.3l0,0L28.7,17
				l-9.2,3c-0.2,0.1-0.3,0.2-0.2,0.4c0,0.1,0.2,0.2,0.3,0.2h0.1l9.5-3.1l-11.9,7c-0.2,0.1-0.2,0.3-0.1,0.5c0.1,0.1,0.2,0.2,0.3,0.2
				c0.1,0,0.1,0,0.2,0l11.9-7l-7.2,6.5c-0.1,0.1-0.1,0.3,0,0.5c0.1,0.1,0.2,0.1,0.2,0.1c0.1,0,0.2,0,0.2-0.1l7.2-6.5l-6.3,8.8
				c-0.1,0.1-0.1,0.4,0.1,0.5c0.1,0,0.1,0.1,0.2,0.1s0.2,0,0.3-0.1l6.3-8.8l-1.9,4.4c-0.1,0.2,0,0.4,0.2,0.4H29
				c0.1,0,0.2-0.1,0.3-0.2l1.9-4.4L29.7,26c0,0.2,0.1,0.4,0.3,0.4c0,0,0,0,0.1,0c0.2,0,0.3-0.1,0.3-0.3l1.3-6.6v6
				c0,0.2,0.1,0.3,0.3,0.3l0,0c0.2,0,0.3-0.1,0.3-0.3v-6.2l1.4,6.9c0,0.2,0.2,0.3,0.3,0.3c0,0,0,0,0.1,0c0.2,0,0.3-0.2,0.3-0.4
				L33,19.2l1.9,4.4c0.1,0.1,0.2,0.2,0.3,0.2h0.1c0.2-0.1,0.2-0.3,0.2-0.4L33.6,19l6.4,8.9c0.1,0.1,0.2,0.1,0.3,0.1s0.1,0,0.2-0.1
				c0.1-0.1,0.2-0.3,0.1-0.5l-6.4-8.9l6.8,6.1c0.1,0.1,0.1,0.1,0.2,0.1c0.1,0,0.2,0,0.2-0.1c0.1-0.1,0.1-0.3,0-0.5L34.5,18l10.6,6.1
				c0.1,0,0.1,0,0.2,0c0.1,0,0.2-0.1,0.3-0.2c0.1-0.2,0-0.4-0.1-0.5l-10.6-6.1L46.2,21h0.1c0.1,0,0.3-0.1,0.3-0.2
				c0.1-0.2,0-0.4-0.2-0.4l-11.3-3.7l9.1,0.9l0,0c0.2,0,0.3-0.1,0.3-0.3c0-0.2-0.1-0.3-0.3-0.4L35.1,16l12.1-1.3
				c0.2,0,0.3-0.2,0.3-0.4C47.5,14.3,47.4,14.2,47.2,14.2z"/>
			<path class="st1" d="M18.1,29.3l0.3-0.3c0.1-0.1,0.1-0.3,0-0.5c-0.1-0.1-0.3-0.1-0.5,0l-0.3,0.3c-0.1,0.1-0.1,0.3,0,0.5
				c0.1,0.1,0.2,0.1,0.2,0.1C18,29.4,18.1,29.3,18.1,29.3z"/>
			<path class="st1" d="M16.7,29.6l-0.3,0.3c-0.1,0.1-0.1,0.3,0,0.5c0.1,0.1,0.2,0.1,0.2,0.1c0.1,0,0.2,0,0.2-0.1l0.3-0.3
				c0.1-0.1,0.1-0.3,0-0.5C17.1,29.5,16.9,29.5,16.7,29.6z"/>
			<path class="st1" d="M20.5,32.3c-0.1-0.1-0.4-0.1-0.5,0.1l-0.5,0.7c-0.1,0.1-0.1,0.4,0.1,0.5c0.1,0,0.1,0.1,0.2,0.1
				s0.2,0,0.3-0.1l0.5-0.7C20.6,32.6,20.6,32.4,20.5,32.3z"/>
			<path class="st1" d="M18.9,34.5c-0.1-0.1-0.4-0.1-0.5,0.1l-0.5,0.7c-0.1,0.1-0.1,0.4,0.1,0.5c0.1,0,0.1,0.1,0.2,0.1
				s0.2,0,0.3-0.1l0.5-0.7C19,34.8,19,34.6,18.9,34.5z"/>
			<path class="st1" d="M22.4,38.3c-0.2-0.1-0.4,0-0.4,0.2l-0.4,0.8c-0.1,0.2,0,0.4,0.2,0.4h0.1c0.1,0,0.2-0.1,0.3-0.2l0.4-0.8
				C22.6,38.6,22.5,38.4,22.4,38.3z"/>
			<path class="st1" d="M23.5,35.8c-0.2-0.1-0.4,0-0.4,0.2l-0.4,0.8c-0.1,0.2,0,0.4,0.2,0.4H23c0.1,0,0.2-0.1,0.3-0.2l0.4-0.8
				C23.7,36.1,23.6,35.9,23.5,35.8z"/>
			<path class="st1" d="M21.3,40.8c-0.2-0.1-0.4,0-0.4,0.2l-0.4,0.8c-0.1,0.2,0,0.4,0.2,0.4h0.1c0.1,0,0.2-0.1,0.3-0.2l0.4-0.8
				C21.5,41.1,21.4,40.9,21.3,40.8z"/>
			<path class="st1" d="M27.4,38.7c-0.2,0-0.4,0.1-0.4,0.3v0.4c0,0.2,0.1,0.4,0.3,0.4c0,0,0,0,0.1,0c0.2,0,0.3-0.1,0.3-0.3l0.1-0.4
				C27.7,38.9,27.6,38.8,27.4,38.7z"/>
			<path class="st1" d="M37.2,39.8C37.2,39.8,37.2,39.7,37.2,39.8l-0.1-0.2L37,39.2c0-0.2-0.2-0.3-0.4-0.3s-0.3,0.2-0.3,0.4l0.1,0.4
				c0,0,0,0.1,0.1,0.1v0.1l0.1,0.4c0,0.2,0.2,0.3,0.3,0.3c0,0,0,0,0.1,0c0.2,0,0.3-0.2,0.3-0.4L37.2,39.8z"/>
			<path class="st1" d="M42.2,38.5c-0.1-0.2-0.3-0.2-0.4-0.2c-0.2,0.1-0.2,0.3-0.2,0.4l0.4,0.8c0.1,0.1,0.2,0.2,0.3,0.2h0.1
				c0.2-0.1,0.2-0.3,0.2-0.4L42.2,38.5z"/>
			<path class="st1" d="M41.1,36c-0.1-0.2-0.3-0.2-0.4-0.2c-0.2,0.1-0.2,0.3-0.2,0.4l0.4,0.8c0.1,0.1,0.2,0.2,0.3,0.2h0.1
				c0.2-0.1,0.2-0.3,0.2-0.4L41.1,36z"/>
			<path class="st1" d="M43.3,41c-0.1-0.2-0.3-0.2-0.4-0.2c-0.2,0.1-0.2,0.3-0.2,0.4l0.4,0.8c0.1,0.1,0.2,0.2,0.3,0.2h0.1
				c0.2-0.1,0.2-0.3,0.2-0.4L43.3,41z"/>
			<path class="st1" d="M44,32.3c-0.1-0.1-0.3-0.2-0.5-0.1c-0.1,0.1-0.2,0.3-0.1,0.5l0.3,0.4c0.1,0.1,0.2,0.1,0.3,0.1s0.1,0,0.2-0.1
				c0.1-0.1,0.2-0.3,0.1-0.5L44,32.3z"/>
			<path class="st1" d="M45.2,33.9c-0.1-0.1-0.3-0.2-0.5-0.1c-0.1,0.1-0.2,0.3-0.1,0.5l0.5,0.7c0.1,0.1,0.2,0.1,0.3,0.1
				s0.1,0,0.2-0.1c0.1-0.1,0.2-0.3,0.1-0.5L45.2,33.9z"/>
			<path class="st1" d="M46.7,35.9c-0.1-0.1-0.3-0.2-0.5-0.1c-0.1,0.1-0.2,0.3-0.1,0.5l0.3,0.4c0.1,0.1,0.2,0.1,0.3,0.1
				s0.1,0,0.2-0.1c0.1-0.1,0.2-0.3,0.1-0.5L46.7,35.9z"/>
			<path class="st1" d="M46.2,29.4c0.1,0.1,0.1,0.1,0.2,0.1c0.1,0,0.2,0,0.2-0.1c0.1-0.1,0.1-0.3,0-0.5l-0.7-0.6
				c-0.1-0.1-0.3-0.1-0.5,0c-0.1,0.1-0.1,0.3,0,0.5L46.2,29.4z"/>
			<path class="st1" d="M21.5,25.7c-0.1-0.1-0.3-0.1-0.5,0L20.7,26l-0.1,0.1c0,0-0.1,0-0.1,0.1l-0.3,0.3c-0.1,0.1-0.1,0.3,0,0.5
				c0.1,0.1,0.2,0.1,0.2,0.1c0.1,0,0.2,0,0.2-0.1l0.3-0.3l0.1-0.1c0,0,0.1,0,0.1-0.1l0.3-0.3C21.6,26.1,21.6,25.9,21.5,25.7z"/>
			<path class="st1" d="M22.1,30.1c0.1,0,0.1,0.1,0.2,0.1s0.2,0,0.3-0.1l0.2-0.3c0.1-0.1,0.1-0.4-0.1-0.5c-0.1-0.1-0.4-0.1-0.5,0.1
				L22,29.6C21.9,29.8,21.9,30,22.1,30.1z"/>
			<path class="st1" d="M25.2,31.8c-0.2-0.1-0.4,0-0.4,0.2l-0.1,0.3c-0.1,0.2,0,0.4,0.2,0.4H25c0.1,0,0.2-0.1,0.3-0.2l0.1-0.3
				C25.4,32.1,25.4,31.9,25.2,31.8z"/>
			<path class="st1" d="M28.9,31.7c-0.2,0-0.4,0.1-0.4,0.3l-0.1,0.7c0,0.2,0.1,0.4,0.3,0.4c0,0,0,0,0.1,0c0.2,0,0.3-0.1,0.3-0.3
				l0.1-0.7C29.1,31.9,29,31.7,28.9,31.7z"/>
			<path class="st1" d="M35.6,31.9c0-0.2-0.2-0.3-0.4-0.3s-0.3,0.2-0.3,0.4l0.1,0.7c0,0.2,0.2,0.3,0.3,0.3c0,0,0,0,0.1,0
				c0.2,0,0.3-0.2,0.3-0.4L35.6,31.9z"/>
			<path class="st1" d="M39.2,31.7c-0.1-0.2-0.3-0.2-0.4-0.2c-0.2,0.1-0.2,0.3-0.2,0.4l0.2,0.6c0.1,0.1,0.2,0.2,0.3,0.2h0.1
				c0.2-0.1,0.2-0.3,0.2-0.4L39.2,31.7z"/>
			<path class="st1" d="M42,30c0.1-0.1,0.2-0.3,0.1-0.5L42,29.3c-0.1-0.1-0.3-0.2-0.5-0.1c-0.1,0.1-0.2,0.3-0.1,0.5l0.1,0.2
				c0.1,0.1,0.2,0.1,0.3,0.1C41.9,30.1,41.9,30,42,30z"/>
			<path class="st1" d="M42.6,25.3L42.3,25c-0.1-0.1-0.3-0.1-0.5,0c-0.1,0.1-0.1,0.3,0,0.5l0.3,0.3c0.1,0.1,0.1,0.1,0.2,0.1
				c0.1,0,0.2,0,0.2-0.1C42.7,25.6,42.7,25.4,42.6,25.3z"/>
			<path class="st1" d="M43.5,27c0.1,0.1,0.1,0.1,0.2,0.1c0.1,0,0.2,0,0.2-0.1c0.1-0.1,0.1-0.3,0-0.5l-0.3-0.3
				c-0.1-0.1-0.3-0.1-0.5,0c-0.1,0.1-0.1,0.3,0,0.5L43.5,27z"/>
			<path class="st1" d="M15.3,21.3l-0.4,0.1c-0.2,0.1-0.3,0.2-0.2,0.4c0,0.1,0.2,0.2,0.3,0.2h0.1l0.4-0.1c0.2-0.1,0.3-0.2,0.2-0.4
				C15.6,21.4,15.4,21.3,15.3,21.3z"/>
			<path class="st1" d="M17,21.1c0,0.1,0.2,0.2,0.3,0.2h0.1l0.4-0.1c0.2-0.1,0.3-0.2,0.2-0.4c-0.1-0.2-0.2-0.3-0.4-0.2l-0.4,0.1
				C17.1,20.7,17,20.9,17,21.1z"/>
			<path class="st1" d="M17.3,17.8c0-0.2-0.2-0.3-0.4-0.3L16,17.6c-0.2,0-0.3,0.2-0.3,0.4c0,0.2,0.2,0.3,0.3,0.3l0,0l0.9-0.1
				C17.1,18.1,17.3,18,17.3,17.8z"/>
			<path class="st1" d="M14.2,17.8l-0.9,0.1c-0.2,0-0.3,0.2-0.3,0.4c0,0.2,0.2,0.3,0.3,0.3l0,0l0.9-0.1c0.2,0,0.3-0.2,0.3-0.4
				S14.3,17.8,14.2,17.8z"/>
			<path class="st1" d="M51.9,22.3L51,22c-0.2-0.1-0.4,0-0.4,0.2c-0.1,0.2,0,0.4,0.2,0.4l0.9,0.3h0.1c0.1,0,0.3-0.1,0.3-0.2
				C52.1,22.5,52,22.3,51.9,22.3z"/>
			<path class="st1" d="M49.3,21.4l-0.9-0.3c-0.2-0.1-0.4,0-0.4,0.2c-0.1,0.2,0,0.4,0.2,0.4l0.9,0.3h0.1c0.1,0,0.3-0.1,0.3-0.2
				C49.5,21.7,49.4,21.5,49.3,21.4z"/>
			<path class="st1" d="M47.1,17.4l-0.9-0.1c-0.2,0-0.3,0.1-0.4,0.3c0,0.2,0.1,0.3,0.3,0.4l0.9,0.1l0,0c0.2,0,0.3-0.1,0.3-0.3
				C47.4,17.6,47.2,17.4,47.1,17.4z"/>
			<path class="st1" d="M49.8,17.7l-0.9-0.1c-0.2,0-0.3,0.1-0.4,0.3c0,0.2,0.1,0.3,0.3,0.4l0.9,0.1l0,0c0.2,0,0.3-0.1,0.3-0.3
				C50.1,17.9,50,17.7,49.8,17.7z"/>
		</g>
		<g>
			<circle class="st3" cx="32" cy="16.2" r="5.1"/>
			<circle class="st1" cx="32" cy="16.2" r="4.4"/>
			<circle class="st2" cx="32" cy="16.2" r="3.8"/>
		</g>
		<g>
			<g>
				<path class="st4" d="M34.1,59.4c0,0.8-0.7,0.3-0.7,0.3s-0.8-0.7-1.1,0c-0.3,0.6,0,1.6,0,1.6c1.1,0,2.3-0.1,3.4-0.2
					C35.8,59.4,34.1,59.4,34.1,59.4z"/>
				<path class="st4" d="M29.9,59.2c-1.8,0-2.2,1.1-2.2,1.8c1.4,0.2,2.9,0.3,4.3,0.3c0.1-1.2-0.4-1.7-0.4-1.7
					C30.5,60.2,29.9,59.2,29.9,59.2z"/>
			</g>
			<g>
				<g>
					<path class="st5" d="M31.6,50.3L31.6,50.3L31.6,50.3L31.6,50.3c-1.1,0-2,0-2.8-0.1l1.1,9.1c0,0,0.6,1,1.7,0.4l0.3-9.4
						C31.8,50.3,31.7,50.3,31.6,50.3z"/>
					<path class="st5" d="M32.4,50.3L32.4,50.3L32.4,50.3L32.4,50.3c-0.1,0-0.2,0-0.2,0l0.3,9.2c0.4-0.3,1,0.2,1,0.2
						s0.6,0.4,0.7-0.2v-0.1l1.1-9.2C34.4,50.2,33.4,50.3,32.4,50.3z"/>
				</g>
				<g>
					<path class="st5" d="M22.9,31.8c-0.3-0.3-2.9-3.9-3.5-4.7c0,0,0-0.1-0.1-0.1c-0.1-0.2,0-0.3,0-0.5c0-0.3-0.1-0.8-0.3-1.1
						c-0.1-0.2-0.2-0.3-0.3-0.5c-0.1-0.2-0.1-0.4-0.3-0.4c-0.5,0-0.1,0.6,0,0.8c0.1,0.2-0.1,0.3-0.2,0.1c-0.1-0.1-0.3-0.2-0.4-0.3
						c-0.3-0.3-0.5-0.7-0.7-1.1c-0.1-0.3-0.5-0.2-0.4,0.1c0,0.5,0.2,0.9,0.3,1.3c0.1,0.4,0.3,0.8,0.6,1.2c0.2,0.3,0.5,0.5,0.7,0.8
						c0,0,0,0,0,0.1c1,1.7,2.7,5.1,3.6,6.8c0.2,0.4,0.6,0.7,1,0.9c0,0,2.4,1.3,2.4,1.4c0-0.9,0.3-1.9,1-2.6
						c-0.9-0.4-1.8-0.8-2.7-1.2C23.4,32.5,23.2,32.1,22.9,31.8z"/>
					<path class="st5" d="M46.8,24c-0.1,0.5-0.3,0.8-0.7,1.1c-0.1,0.1-0.3,0.2-0.4,0.3c-0.2,0.1-0.3,0.1-0.2-0.1s0.5-0.8,0-0.8
						c-0.2,0.1-0.2,0.3-0.3,0.4c-0.1,0.2-0.2,0.3-0.3,0.5c-0.2,0.3-0.3,0.7-0.3,1.1c0,0.2,0.1,0.3,0,0.5c0,0,0,0-0.1,0.1
						c-0.6,0.8-3.2,4.4-3.5,4.7s-0.5,0.8-1,0.9c-0.9,0.4-1.7,0.8-2.7,1.2c0.7,0.7,1,1.6,1,2.6c0.1,0,2.4-1.4,2.4-1.4
						c0.4-0.2,0.8-0.5,1-0.9c1-1.7,2.6-5.1,3.6-6.8c0,0,0,0,0-0.1c0.2-0.3,0.5-0.5,0.7-0.8c0.3-0.3,0.5-0.7,0.6-1.2
						C46.8,24.9,46.9,24.4,46.8,24C47.2,23.8,46.9,23.7,46.8,24z"/>
				</g>
				<polygon class="st6" points="32.9,32 32,32 32,32 31.1,32 30.5,35 32,35 32,35 33.5,35 				"/>
			</g>
			<g>
				<g>
					<g>
						<path class="st7" d="M35.9,38.3c-1.1,0-2-0.6-2.3-1.6c-0.2-0.6-0.1-1.2,0.2-1.8s0.9-1,1.5-1.2c0.3-0.1,0.5-0.1,0.8-0.1
							c1.1,0,2,0.6,2.3,1.6c0.2,0.6,0.1,1.2-0.2,1.8s-0.9,1-1.5,1.2C36.4,38.2,36.1,38.3,35.9,38.3L35.9,38.3z"/>
						<path class="st8" d="M36.1,33.8c1,0,1.8,0.6,2.1,1.4c0.2,0.5,0.1,1.1-0.2,1.6s-0.8,0.9-1.4,1.1C36.3,38,36.1,38,35.9,38
							c-1,0-1.8-0.6-2.1-1.4c-0.3-1.1,0.4-2.3,1.6-2.6C35.6,33.8,35.9,33.8,36.1,33.8 M36.1,33.3c-0.3,0-0.6,0-0.9,0.1
							c-1.5,0.5-2.3,1.9-1.9,3.3c0.3,1.1,1.4,1.8,2.6,1.8c0.3,0,0.6,0,0.9-0.1c1.5-0.5,2.3-1.9,1.9-3.3C38.3,34,37.3,33.3,36.1,33.3
							L36.1,33.3z"/>
					</g>
					<g>
						<path class="st7" d="M28.1,38.3c-0.3,0-0.5,0-0.8-0.1c-1.3-0.4-2.1-1.7-1.8-3c0.3-1,1.2-1.6,2.3-1.6c0.3,0,0.5,0,0.8,0.1
							c0.7,0.2,1.2,0.6,1.5,1.2c0.3,0.6,0.4,1.2,0.2,1.8C30.2,37.6,29.2,38.3,28.1,38.3z"/>
						<path class="st8" d="M27.9,33.3v0.5c0.2,0,0.5,0,0.7,0.1c0.6,0.2,1.1,0.6,1.4,1.1s0.4,1.1,0.2,1.6c-0.3,0.9-1.1,1.4-2.1,1.4
							c-0.2,0-0.5,0-0.7-0.1c-0.6-0.2-1.1-0.6-1.4-1.1s-0.4-1.1-0.2-1.6c0.3-0.9,1.1-1.4,2.1-1.4V33.3 M27.9,33.3
							c-1.2,0-2.2,0.7-2.6,1.8c-0.4,1.4,0.4,2.8,1.9,3.3c0.3,0.1,0.6,0.1,0.9,0.1c1.2,0,2.2-0.7,2.6-1.8c0.4-1.4-0.4-2.8-1.9-3.3
							C28.5,33.3,28.2,33.3,27.9,33.3L27.9,33.3z"/>
					</g>
				</g>
				<g>
					<path class="st8" d="M28.9,34.1c0.4-1.6,3.1-0.2,3.1-0.2l0,0c0,0,2.7-1.4,3.1,0.2c0.4,1.6,0.4,9.1,6.3,13.3
						c-0.7,1.3-2.1,2.9-9.4,2.9l0,0c-7.3,0-8.8-1.6-9.4-2.9C28.5,43.2,28.4,35.7,28.9,34.1z"/>
					<g>
						<path class="st7" d="M32.2,50L32.2,50H32h-0.2l0,0h-0.2c-3.1,0-5.4-0.3-6.8-0.9c-1.1-0.5-1.6-1.1-1.9-1.6
							c0.3-0.2,0.5-0.4,0.8-0.6c0.5-0.3,1-0.4,1.5-0.4c0.6,0,1.1,0.2,1.5,0.6c0.3,0.3,0.4,0.6,0.5,0.9l0.1,0.6l0.3-0.6
							c0.5-0.8,1.2-1.2,1.9-1.2c0.8,0,1.6,0.6,2.1,1.5l0.2,0.5l0.2-0.5c0.4-1,1.2-1.5,2.1-1.5c0.8,0,1.5,0.5,1.9,1.2l0.3,0.6
							l0.1-0.6c0.1-0.4,0.3-0.7,0.5-0.9c0.4-0.4,0.9-0.6,1.5-0.6c0.5,0,1,0.1,1.5,0.4c0.3,0.2,0.5,0.4,0.8,0.6
							c-0.3,0.5-0.8,1.1-1.9,1.6C37.3,49.7,35.1,50,32,50h-0.1C32.3,50,32.2,50,32.2,50z"/>
						<path class="st8" d="M38.7,46.7c0.5,0,0.9,0.1,1.4,0.4c0.2,0.2,0.4,0.3,0.6,0.5c-0.3,0.4-0.8,0.9-1.7,1.3
							c-1.4,0.6-3.7,0.9-6.7,0.9l0,0l0,0H32h-0.3l0,0l0,0c-3,0-5.3-0.3-6.7-0.9c-0.9-0.4-1.4-0.9-1.7-1.3c0.2-0.2,0.4-0.3,0.6-0.5
							c0.5-0.2,0.9-0.4,1.4-0.4s1,0.2,1.3,0.5c0.2,0.2,0.4,0.5,0.4,0.8l0.3,1.2l0.6-1.1c0.4-0.7,1-1.1,1.7-1.1c0.4,0,0.7,0.1,1,0.4
							c0.3,0.2,0.6,0.6,0.8,1l0.5,1l0.5-1c0.2-0.4,0.5-0.8,0.8-1s0.7-0.4,1-0.4c0.7,0,1.3,0.4,1.7,1.1l0.6,1.1L37,48
							c0.1-0.3,0.2-0.6,0.4-0.8C37.7,46.9,38.2,46.7,38.7,46.7 M38.7,46.2c-0.6,0-1.2,0.2-1.7,0.7c-0.3,0.3-0.5,0.7-0.6,1.1
							c-0.5-0.8-1.3-1.4-2.1-1.4c-1,0-1.8,0.7-2.3,1.7c-0.5-1-1.3-1.7-2.3-1.7c-0.9,0-1.7,0.5-2.1,1.4c-0.1-0.4-0.3-0.8-0.6-1.1
							c-0.4-0.4-1-0.7-1.7-0.7c-0.6,0-1.1,0.2-1.7,0.5c-0.3,0.3-0.6,0.5-1,0.8c0.6,1.3,2.1,2.9,9.1,2.9l0,0c0,0,0,0,0.1,0
							s0.2,0,0.3,0l0,0l0,0l0,0l0,0c0.1,0,0.2,0,0.3,0c0,0,0,0,0.1,0l0,0c7,0,8.4-1.6,9.1-2.9c-0.4-0.2-0.7-0.5-1-0.8
							C39.9,46.3,39.3,46.2,38.7,46.2L38.7,46.2z"/>
					</g>
				</g>
			</g>
			<g>
				<g>
					<g>
						<path class="st4" d="M38.3,29.7c-0.4,0-0.7-0.1-1-0.3c-0.3-0.3-0.2-0.7,0.1-0.9c0.4-0.3,1.3-0.3,3.6,0.1
							c0.3,0.1,0.7,0.1,0.8,0.1C39.8,29,39.5,29.7,38.3,29.7z"/>
						<path class="st8" d="M38.1,27.8c1.3-0.3,0.9-0.7,0.2-1.1l-0.7-0.4c-0.4-0.2-0.7-0.5-1-0.9l-0.4-0.8c-0.2-0.4-0.7-0.5-1-0.3
							l0,0c-0.4,0.3-0.6,0.8-0.4,1.2c1.2,3.4,1.1,5.1,0.9,6c-0.1,0.5,0,0.7,0.1,0.9c0.2,0.1,1,0.2,1.5-0.4c0.1-0.1,0.2-0.2,0.4-0.3
							l0.3-0.2c0.1-0.1,0.2-0.2,0.3-0.3c0.3-0.3,0.4-0.6,0-0.8L38,30.3c-0.8-0.2-1.2-0.5-1.4-0.8c-0.2-0.4-0.1-0.9,0.3-1.2
							C37.2,28.1,37.6,27.9,38.1,27.8z"/>
					</g>
					<g>
						<path class="st4" d="M25.7,29.7c0.4,0,0.7-0.1,1-0.3c0.3-0.3,0.2-0.7-0.1-0.9c-0.4-0.3-1.3-0.3-3.6,0.1
							c-0.3,0.1-0.7,0.1-0.8,0.1C24.2,29,24.5,29.7,25.7,29.7z"/>
						<path class="st8" d="M25.9,27.8c-1.3-0.3-0.9-0.7-0.2-1.1l0.7-0.4c0.4-0.2,0.7-0.5,1-0.9l0.4-0.8c0.2-0.4,0.7-0.5,1-0.3l0,0
							c0.4,0.3,0.6,0.8,0.4,1.2c-1.2,3.4-1.1,5.1-0.9,6c0.1,0.5,0,0.7-0.1,0.9c-0.2,0.1-1,0.2-1.5-0.4c-0.1-0.1-0.2-0.2-0.4-0.3
							L26,31.5c-0.1-0.1-0.2-0.2-0.3-0.3c-0.3-0.3-0.4-0.6,0-0.8l0.4-0.1c0.8-0.2,1.2-0.5,1.4-0.8c0.2-0.4,0.1-0.9-0.3-1.2
							C26.8,28.1,26.4,27.9,25.9,27.8z"/>
					</g>
				</g>
				<circle class="st4" cx="32" cy="29.6" r="3.2"/>
			</g>
		</g>
	</g>
</g>
</svg>
